<svg width="352" height="352" viewBox="0 0 352 352" fill="none" xmlns="http://www.w3.org/2000/svg"><rect width="352" height="352" rx="48" fill="#383798"/><path d="M67.104 90.05v171.9a9.55 9.55 0 0 1-9.552 9.55A9.553 9.553 0 0 1 48 261.95V90.05a9.55 9.55 0 0 1 9.552-9.55 9.554 9.554 0 0 1 9.552 9.55m109.851 65.059-23.881 7.76V137.8a9.552 9.552 0 0 0-19.104 0v25.069l-23.881-7.76a9.567 9.567 0 0 0-12.071 6.1 9.56 9.56 0 0 0 6.101 12.069L128 181.026l-14.735 20.293a9.548 9.548 0 0 0 5.405 15.127 9.57 9.57 0 0 0 7.325-1.265 9.5 9.5 0 0 0 2.721-2.64l14.734-20.294 14.735 20.294a9.555 9.555 0 0 0 16.059-.463 9.56 9.56 0 0 0 1.062-7.355 9.6 9.6 0 0 0-1.671-3.404l-14.734-20.293 23.881-7.748a9.55 9.55 0 0 0 5.766-11.866 9.555 9.555 0 0 0-11.593-6.303m126.566 6.136a9.55 9.55 0 0 0-11.94-6.136l-23.88 7.76V137.8a9.55 9.55 0 0 0-16.307-6.753 9.55 9.55 0 0 0-2.798 6.753v25.069l-23.88-7.748a9.56 9.56 0 0 0-12.042 6.13 9.55 9.55 0 0 0 6.131 12.039l23.881 7.748-14.734 20.293a9.55 9.55 0 0 0-1.885 7.189 9.55 9.55 0 0 0 17.335 4.033l14.735-20.294 14.734 20.294a9.56 9.56 0 0 0 10.046 3.905 9.55 9.55 0 0 0 5.405-15.127l-14.735-20.293 23.881-7.748a9.547 9.547 0 0 0 6.053-12.045" fill="#fff"/></svg>